<?xml version="1.0" encoding="utf-8"?>
<!DOCTYPE svg PUBLIC "-//W3C//DTD SVG 20010904//EN" "http://www.w3.org/TR/2001/REC-SVG-20010904/DTD/svg10.dtd">
<svg version="1.0" xmlns="http://www.w3.org/2000/svg" width="71pt" height="98pt" viewBox="0 0 71 98" style="" preserveAspectRatio="xMidYMid meet">
<g fill="#EE682EFF" stroke="#EE682EFF">
<path d="M 1.184 2.715 C 1.432 4.003 7.250 6.259 24.507 11.758 C 37.153 15.788 48.175 19.450 49.000 19.896 C 50.997 20.976 51.630 31.361 49.797 32.975 C 49.084 33.603 43.563 37.250 37.529 41.079 C 31.495 44.909 26.214 48.386 25.793 48.807 C 25.372 49.228 30.647 53.099 37.514 57.410 L 50.000 65.247 50.000 71.531 L 50.000 77.814 38.250 81.485 C -0.675 93.646 1.000 93.032 1.000 95.132 C 1.000 97.081 1.577 97.121 25.250 96.814 C 47.818 96.522 49.833 96.346 54.307 94.281 C 64.351 89.645 69.042 82.697 69.782 71.361 C 70.184 65.214 69.891 63.443 67.675 58.602 C 65.627 54.127 64.070 52.339 60.042 49.835 L 54.981 46.690 57.783 44.986 C 69.749 37.709 71.389 19.389 61.003 9.003 C 54.327 2.327 47.914 1.000 22.321 1.000 C 2.578 1.000 0.880 1.138 1.184 2.715 "/></g>
<g fill="#FBBF2AFF" stroke="#FBBF2AFF">
<path d="M 1.000 63.567 C 1.000 91.272 1.110 93.100 2.750 92.580 C 3.713 92.274 13.950 89.085 25.500 85.493 C 52.015 77.246 49.770 78.094 47.998 76.999 C 47.141 76.469 46.321 76.480 45.983 77.027 C 45.642 77.579 39.825 77.363 31.457 76.488 C 9.788 74.221 9.000 74.058 9.000 71.855 C 9.000 70.800 9.563 69.725 10.250 69.465 C 12.881 68.470 45.525 65.303 46.000 65.997 C 46.275 66.398 47.340 66.427 48.366 66.060 C 49.817 65.541 47.436 63.638 37.657 57.499 C 27.029 50.828 25.269 49.375 26.291 48.111 C 26.956 47.289 27.025 46.900 26.444 47.247 C 25.863 47.594 20.250 44.756 13.971 40.939 C 7.692 37.123 2.205 34.000 1.778 34.000 C 1.350 34.000 1.000 47.305 1.000 63.567 "/></g>
<g fill="#F9EB0DFF" stroke="#F9EB0DFF">
<path d="M 12.000 34.874 L 12.000 39.748 18.702 43.831 L 25.405 47.913 28.952 45.752 C 30.904 44.563 35.855 41.465 39.956 38.866 C 48.651 33.356 49.457 33.889 28.901 31.549 C 10.463 29.449 12.000 29.147 12.000 34.874 "/></g>
<g fill="#FCF7B8FF" stroke="#FCF7B8FF">
<path d="M 29.000 22.054 C 21.575 23.040 14.938 23.881 14.250 23.923 C 13.264 23.984 12.284 28.972 13.250 29.010 C 13.388 29.015 20.700 29.911 29.500 31.000 C 38.300 32.089 46.573 32.985 47.885 32.990 L 50.270 33.000 47.635 30.927 C 44.344 28.339 44.286 25.623 47.455 22.455 L 49.909 20.000 46.205 20.130 C 44.167 20.202 36.425 21.068 29.000 22.054 "/></g>
<g fill="#F9EB0DFF" stroke="#F9EB0DFF">
<path d="M 12.000 16.421 C 12.000 24.105 10.378 23.590 28.000 21.500 C 34.875 20.685 41.175 19.980 42.000 19.935 C 43.555 19.849 19.641 11.519 14.764 10.448 L 12.000 9.841 12.000 16.421 "/></g>
<g fill="#F9ED3BFF" stroke="#F9ED3BFF">
<path d="M 32.698 66.721 C 30.040 67.121 29.912 67.380 30.198 71.761 C 30.491 76.245 30.601 76.387 34.000 76.687 C 35.925 76.856 38.963 77.193 40.750 77.435 L 44.000 77.874 44.000 71.937 L 44.000 66.000 39.750 66.150 C 37.413 66.232 34.239 66.489 32.698 66.721 "/></g>
<g fill="#F9ED3BFF" stroke="#F9ED3BFF">
<path d="M 1.000 15.091 C 1.000 25.121 1.025 25.227 3.250 24.630 C 4.488 24.299 6.288 24.021 7.250 24.014 C 8.744 24.002 8.998 23.013 8.985 17.250 C 8.967 9.524 8.683 8.885 4.250 6.614 L 1.000 4.949 1.000 15.091 "/></g>
<g fill="#FAEF5CFF" stroke="#FAEF5CFF">
<path d="M 24.500 67.674 C 17.646 68.529 17.000 68.904 17.000 72.019 C 17.000 74.602 17.367 75.001 19.750 75.011 C 21.263 75.017 24.188 75.301 26.250 75.642 L 30.000 76.262 30.000 71.631 C 30.000 68.513 29.592 67.049 28.750 67.150 C 28.063 67.232 26.150 67.468 24.500 67.674 "/></g>
<g fill="#FBBF2AFF" stroke="#FBBF2AFF">
<path d="M 2.392 5.473 C 4.803 7.327 44.714 20.268 46.307 19.712 C 46.963 19.483 38.775 16.487 28.111 13.054 C 17.448 9.622 6.873 6.184 4.611 5.415 C 0.999 4.187 0.730 4.194 2.392 5.473 "/></g>
<g fill="#F9ED3BFF" stroke="#F9ED3BFF">
<path d="M 1.000 30.698 C 1.000 33.047 1.675 33.952 4.398 35.250 C 8.402 37.159 9.000 36.780 9.000 32.333 C 9.000 29.831 8.564 28.997 7.250 28.986 C 6.288 28.979 4.488 28.701 3.250 28.370 C 1.291 27.845 1.000 28.146 1.000 30.698 "/></g>
<g fill="#F9EB16FF" stroke="#F9EB16FF">
<path d="M 9.000 16.469 C 9.000 22.697 9.249 23.842 10.500 23.362 C 11.633 22.927 12.000 21.098 12.000 15.893 C 12.000 10.433 11.688 9.000 10.500 9.000 C 9.301 9.000 9.000 10.497 9.000 16.469 "/></g>
<g fill="#FFFEF7FF" stroke="#FFFEF7FF">
<path d="M 46.557 23.223 C 44.507 26.148 44.590 28.319 46.829 30.345 C 49.632 32.882 50.000 32.435 50.000 26.500 C 50.000 20.599 49.037 19.682 46.557 23.223 "/></g>
<g fill="#FCF7B8FF" stroke="#FCF7B8FF">
<path d="M 46.333 68.615 C 44.811 70.937 44.781 71.517 46.059 73.785 C 48.673 78.420 50.000 77.679 50.000 71.583 C 50.000 65.458 48.955 64.613 46.333 68.615 "/></g>
<g fill="#F9EB16FF" stroke="#F9EB16FF">
<path d="M 9.196 33.682 C 9.604 39.943 12.000 40.804 12.000 34.690 C 12.000 31.564 11.531 30.034 10.446 29.618 C 9.153 29.121 8.942 29.805 9.196 33.682 "/></g>
<g fill="#EE682EFF" stroke="#EE682EFF">
<path d="M 8.250 24.662 C 6.490 25.372 6.694 27.669 8.582 28.393 C 11.683 29.583 13.000 29.019 13.000 26.500 C 13.000 24.032 11.372 23.403 8.250 24.662 "/></g>
<g fill="#FAEF5CFF" stroke="#FAEF5CFF">
<path d="M 2.750 24.689 C -0.074 25.427 0.740 27.784 4.072 28.516 C 5.761 28.887 7.411 28.922 7.738 28.595 C 8.066 28.268 7.808 28.000 7.167 28.000 C 5.318 28.000 5.812 25.196 7.750 24.689 C 8.851 24.402 8.573 24.232 7.000 24.232 C 5.625 24.232 3.713 24.438 2.750 24.689 "/></g>
<g fill="#FCD25FFF" stroke="#FCD25FFF">
<path d="M 10.000 71.500 C 10.000 73.333 10.533 74.000 12.000 74.000 C 13.467 74.000 14.000 73.333 14.000 71.500 C 14.000 69.667 13.467 69.000 12.000 69.000 C 10.533 69.000 10.000 69.667 10.000 71.500 "/></g>
<g fill="#FBBF2BFF" stroke="#FBBF2BFF">
<path d="M 44.000 71.500 C 44.000 75.075 44.338 78.000 44.750 78.000 C 45.163 78.000 45.500 75.075 45.500 71.500 C 45.500 67.925 45.163 65.000 44.750 65.000 C 44.338 65.000 44.000 67.925 44.000 71.500 "/></g>
<g fill="#F9ED3BFF" stroke="#F9ED3BFF">
<path d="M 15.750 68.689 C 13.589 69.254 13.399 73.555 15.500 74.362 C 16.620 74.791 17.000 74.206 17.000 72.052 C 17.000 70.465 17.563 68.940 18.250 68.662 C 19.780 68.045 18.148 68.063 15.750 68.689 "/></g>
<g fill="#FBBF2AFF" stroke="#FBBF2AFF">
<path d="M 29.828 45.649 L 28.500 46.798 29.828 45.649 L 31.156 44.500 29.828 45.649 "/></g>
</svg>
